<svg xmlns="http://www.w3.org/2000/svg" width="17.873" height="22.02" viewBox="0 0 17.873 22.02"><path d="M7.8,21.593A4.931,4.931,0,0,1,6.66,20.539a14.143,14.143,0,0,1-.976-1.333,12.9,12.9,0,0,1-1.632-3.334,12.537,12.537,0,0,1-.681-3.986,7.409,7.409,0,0,1,.919-3.75,5.3,5.3,0,0,1,1.926-2,5.134,5.134,0,0,1,2.6-.77A4.3,4.3,0,0,1,9.855,5.5c.266.073.587.193.981.339.5.193.779.312.871.339a2.148,2.148,0,0,0,.734.156,2.195,2.195,0,0,0,.591-.119c.133-.046.385-.128.743-.284.354-.128.635-.238.857-.321a7.652,7.652,0,0,1,.963-.238,4.544,4.544,0,0,1,1.053-.046,6.244,6.244,0,0,1,1.779.385,4.8,4.8,0,0,1,2.253,1.8,4.513,4.513,0,0,0-.665.5,5.614,5.614,0,0,0-1.128,1.38,4.676,4.676,0,0,0-.591,2.311,4.732,4.732,0,0,0,.77,2.622,4.888,4.888,0,0,0,1.407,1.408,3.6,3.6,0,0,0,.77.413c-.11.344-.231.679-.371,1.009a13.011,13.011,0,0,1-1.146,2.118c-.4.578-.708,1.009-.944,1.293A5.112,5.112,0,0,1,17.7,21.574a2.409,2.409,0,0,1-1.331.4,2.952,2.952,0,0,1-.948-.116c-.266-.087-.528-.185-.785-.3a6.363,6.363,0,0,0-.83-.312,4.144,4.144,0,0,0-1.067-.135,4.279,4.279,0,0,0-1.064.133,6.608,6.608,0,0,0-.832.3c-.385.16-.637.266-.784.312a4.1,4.1,0,0,1-.908.16,2.521,2.521,0,0,1-1.363-.413ZM14.085,4.667a3.415,3.415,0,0,1-1.809.4A3.677,3.677,0,0,1,12.523,3.2a5.049,5.049,0,0,1,.917-1.54A4.959,4.959,0,0,1,14.935.5,4.252,4.252,0,0,1,16.668,0a4.168,4.168,0,0,1-.229,1.9,5.445,5.445,0,0,1-.917,1.614,4.626,4.626,0,0,1-1.454,1.155Z" transform="translate(-3.37 0.001)"/></svg>