<svg xmlns="http://www.w3.org/2000/svg" width="431.174" height="218.071" viewBox="0 0 431.174 218.071"><g transform="translate(-166.778 -261.565)"><path d="M223.124,481.92S174.952,430.2,214.977,374.2c35.513-49.683,76.917-46.287,107.3-26.125,12.938,8.587,50.241,1.058,81.99-49.5,43.3-68.942,193.381-27.129,166.016,78.941-13.243,51.33,40.3,53.2,13.019,104.505Z" transform="translate(-22.66 -2.804)" fill="#f5f6fa"/><g transform="translate(205.295 409.052)" opacity="0"><rect width="46.332" height="46.332" transform="matrix(0.736, -0.677, 0.677, 0.736, 0, 31.376)" fill="#fddfdf"/><rect width="46.332" height="9.331" transform="matrix(0.736, -0.677, 0.677, 0.736, 0, 31.376)" fill="#fbbecc"/></g><g transform="translate(166.778 261.565)"><path d="M1337.7,310.5l23.376,3.335-15.513-10.573-.789,3.39-5.685,1.03Z" transform="translate(-1322.559 -297.307)" fill="#f69eb6"/><path d="M1270.139,311.339l-19.453-10.03-19.066-.959Z" transform="translate(-1231.62 -294.814)" fill="#fbcddf"/><path d="M1392.791,267.516,1408.3,278.09l-12.009-16.525Z" transform="translate(-1369.785 -261.565)" fill="#fbcddf"/></g><g transform="translate(559.434 378.667)"><path d="M1361.077,310.5l-23.376,3.334,15.512-10.573.789,3.389,5.685,1.03Z" transform="translate(-1337.7 -297.308)" fill="#f69eb6"/><path d="M1231.62,311.339l19.452-10.029,19.065-.959Z" transform="translate(-1231.619 -294.815)" fill="#fbcddf"/><path d="M1408.3,267.516l-15.512,10.573,12.009-16.524Z" transform="translate(-1392.79 -261.565)" fill="#fbcddf"/></g><g transform="translate(433.52 288.03)"><path d="M2182.662,658.935l-5.88,4.22-5.91-4.174a7.237,7.237,0,0,1,11.79-.046Z" transform="translate(-2146.515 -626.093)" fill="#fff"/><g transform="translate(15.964 19.544)"><path d="M2126.375,583.886a17.474,17.474,0,0,0-14.3,7.434l3.732,2.62a12.925,12.925,0,0,1,21.082-.076l3.717-2.666A17.491,17.491,0,0,0,2126.375,583.886Z" transform="translate(-2112.071 -583.886)" fill="#fff"/></g><g transform="translate(0 0)"><path d="M2030.5,446.969a36.975,36.975,0,0,0-30.268,15.72l3.732,2.62a32.456,32.456,0,0,1,52.934-.2l3.7-2.666A36.977,36.977,0,0,0,2030.5,446.969Z" transform="translate(-2000.233 -446.969)" fill="#fff"/></g><g transform="translate(8.683 10.694)"><path d="M2082.648,521.884a26.45,26.45,0,0,0-21.585,11.151l3.732,2.62a21.928,21.928,0,0,1,35.614-.137l3.7-2.651A26.447,26.447,0,0,0,2082.648,521.884Z" transform="translate(-2061.063 -521.884)" fill="#fff"/></g></g><path d="M341.824,354.023l-5.391-.124c1.732,2.245,2.121,4.313,1.043,6.062-1.078,1.785-3.659,3.252-7.512,4.365a69.66,69.66,0,0,0-95.388-87.117l-.009,0c-2.994-.914-5.911-1.663-8.725-2.233-14.2-2.883-24.285-.89-28.38,5.61-3.9,6.182-1.775,15.488,5.957,26.342l0,.005a70.132,70.132,0,0,0-4.613,10.6c-14.528.866-22.305,3.423-25.133,8.054-3.287,5.391,1.2,12.625,15.571,19.66,1.98.972,4.1,1.927,6.327,2.881a69.634,69.634,0,0,0,133.017,19.6c7.087-1.467,11.753-3.765,13.609-6.8C343.485,358.83,343.326,356.5,341.824,354.023Zm-16.632,11.4a107.362,107.362,0,0,1-17.48,1.414,256.093,256.093,0,0,1-35.833-2.414q1.63-3.548,3.191-7.281a98.562,98.562,0,0,0,11.6,3.155,58.783,58.783,0,0,0,11.586,1.288c8.112,0,13.924-2.342,16.794-6.9a11.913,11.913,0,0,0,1.155-2.387h-4.135c-.068.126-.141.25-.218.371-2.132,3.384-6.9,5.133-13.586,5.131a55.188,55.188,0,0,1-10.845-1.212,94.507,94.507,0,0,1-10.921-2.954q1.493-3.737,2.9-7.607c2.521-6.95,4.679-13.839,6.424-20.455a197.093,197.093,0,0,0,43.123,1.077,65.944,65.944,0,0,1,1.352,13.339A65.17,65.17,0,0,1,325.192,365.423Zm-86.151,34.514c-2.011-.729-3.032-3.616-3.534-5.909a51.791,51.791,0,0,1-.415-14.72c.264-3.037.689-6.267,1.26-9.645a179.106,179.106,0,0,1,24.355,8.427c-1.791,3.087-3.6,5.95-5.411,8.545a51.8,51.8,0,0,1-9.755,11.031C243.687,399.1,241.053,400.666,239.042,399.937Zm23.487-25.078a182.792,182.792,0,0,0-25.514-8.836q.457-2.352,1-4.783,3.6.819,7.306,1.584c7.219,1.477,14.422,2.73,21.472,3.745Q264.7,370.9,262.529,374.859Zm-15.616-14.65q-4.184-.861-8.24-1.8c1.272-5.292,2.834-10.81,4.658-16.431a161.249,161.249,0,0,0,28.254,13.934q-1.718,4.1-3.523,7.981C261.126,362.9,254.031,361.668,246.913,360.209Zm-23.157-71.437c5.27,10.8,15.427,19.694,26.357,25.595-2.648,5.77-5.17,11.928-7.489,18.322q-.649,1.788-1.264,3.57c-13.852-9.016-25.579-19.362-33.272-29.374l0,0A65.882,65.882,0,0,1,223.755,288.772Zm59.228-9.991c2.011.729,3.032,3.616,3.534,5.909a51.79,51.79,0,0,1,.415,14.72,146.875,146.875,0,0,1-3.847,21.991,105.391,105.391,0,0,1-28.122-8.692,149.626,149.626,0,0,1,11.765-20.627,51.8,51.8,0,0,1,9.754-11.031c1.53-1.186,3.589-2.455,5.392-2.455A3.23,3.23,0,0,1,282.983,278.781Zm-.814,46.2c-1.7,6.4-3.795,13.06-6.235,19.788q-1.411,3.89-2.916,7.648a157.866,157.866,0,0,1-28.459-14.124q.742-2.167,1.531-4.348c2.267-6.25,4.727-12.266,7.307-17.9A108.635,108.635,0,0,0,282.169,324.982Zm28.92-31.371a65.372,65.372,0,0,1,17,29.4,192.46,192.46,0,0,1-41.35-1.034,150,150,0,0,0,3.868-22.251c.641-7.366.563-16.092-2.424-21A65.189,65.189,0,0,1,311.088,293.612ZM264.728,274.4a65.692,65.692,0,0,1,13.379,1.364c-5.152,2.242-10.412,8.484-14.4,14.207a153.163,153.163,0,0,0-12.02,21.051c-10.4-5.652-20.225-14.315-24.922-24.521A65.352,65.352,0,0,1,264.728,274.4Zm-64.068,8.207c2.132-3.385,6.9-5.131,13.586-5.131a55.175,55.175,0,0,1,10.845,1.212q2.28.461,4.651,1.086h0a69.954,69.954,0,0,0-24.227,23.54l0,.005C199.6,294.543,197.828,287.1,200.66,282.607Zm5.46,27.9,0,0c8.1,10.125,20.04,20.476,33.991,29.452-1.978,6.02-3.666,11.937-5.028,17.607-11.567-2.8-25.01-6.756-35.628-11.248a65.3,65.3,0,0,1,6.663-35.808Zm-13.662,32.662c-12.531-6.115-18.258-12.018-15.695-16.207,2.068-3.394,9.6-5.691,21.121-6.539a69.989,69.989,0,0,0-2.651,24.055C194.278,344.054,193.359,343.612,192.458,343.171ZM234.425,360.4q-.536,2.391-.989,4.712-1.206-.293-2.414-.569a146.593,146.593,0,0,0-28.543-3.833,64.106,64.106,0,0,1-2.579-10.828A260.255,260.255,0,0,0,234.425,360.4Zm-30.576,4.051a147.673,147.673,0,0,1,26.354,3.688q1.283.292,2.564.607c-.615,3.588-1.069,7.016-1.349,10.238-.531,6.1-.569,13.144,1.134,18.17a65.93,65.93,0,0,1-28.7-32.7Zm40.992,38.054c4.852-2.543,9.726-8.383,13.48-13.764,1.936-2.775,3.871-5.847,5.781-9.162a185.348,185.348,0,0,1,31.551,18.253A65.684,65.684,0,0,1,244.842,402.51Zm66.246-16.143a65.083,65.083,0,0,1-11.928,9.455,189.216,189.216,0,0,0-33.246-19.466c1.6-2.93,3.175-6.025,4.714-9.256a283.3,283.3,0,0,0,30.227,2.477c2.439.071,4.807.071,7.1.053a126.423,126.423,0,0,0,15.8-1.06A65.158,65.158,0,0,1,311.088,386.367Z" transform="translate(0 -7.548)" fill="#f9add0" opacity="0"/><g transform="translate(205.056 295.046)"><g transform="translate(0 0)"><path d="M1073.8,926.023l-9.628,114.476s-1.009,6.939,4.153,6.952c8.487.02,42.242,0,42.242,0s-6.387-1.444-6.31-4.695c.091-3.831,11.253-117.816,11.253-117.816Z" transform="translate(-969.252 -863.73)" fill="#d86713"/><path d="M1129.965,1032.9c-1.669,0-33.909.106-42.174,0-3.6-.045-4.234-3.2-4.263-5.246a10.245,10.245,0,0,1,.109-1.7l.25-2.975.638-7.583.564-6.7.724-8.61.61-7.267,6.841-81.343,41.71-1.082s-4.7,47.7-8.026,82.425c-.371,3.869-.724,7.578-1.051,11.041q-.159,1.659-.307,3.239c-.308,3.285-.59,6.3-.835,8.966-.129,1.4-.249,2.708-.356,3.9-.424,4.683-.673,7.673-.676,8.242a4.8,4.8,0,0,0,.081.927C1124.488,1032.779,1129.338,1032.9,1129.965,1032.9Z" transform="translate(-985.914 -851.255)" fill="#f99746"/><path d="M422.463,496.123l23.451,94.2,3.211,12.9L460.048,647.1H662.971L622.712,496.123Z" transform="translate(-419.212 -496.123)" fill="#f99746"/><path d="M402.941,496.122l-3.25,1.083,36.514,153.17,4.321-3.277Z" transform="translate(-399.691 -496.122)" fill="#ee9849"/><path d="M655.5,1557.086H857.172l5.569-3.277H659.82Z" transform="translate(-618.984 -1402.833)" fill="#d86713"/><rect width="43.665" height="2.075" transform="translate(151.002 183.765) rotate(180)" fill="#f1a34f"/><path d="M651.19,619.278l-32.927-121.16H420.188v-2H620.762l32.817,122.887Z" transform="translate(-417.263 -496.122)" fill="#f1a34f"/><path d="M1131.816,1576.76l-.226,1.586-41.065,8.3.563-6.7.269-3.183Z" transform="translate(-991.914 -1422.507)" fill="#d86713"/><path d="M1129.972,1690.968c-1.669,0-33.909.106-42.174,0-3.6-.045-4.233-3.2-4.263-5.246l40.871-7.689c-.424,4.683-.673,7.673-.676,8.242a4.8,4.8,0,0,0,.081.927C1124.5,1690.848,1129.346,1690.968,1129.972,1690.968Z" transform="translate(-985.922 -1509.324)" fill="#d86713" opacity="0.4"/><path d="M709.313,1259.743l-89.141,30.564-10.923-43.876Z" transform="translate(-579.337 -1139.33)" fill="#d86713" opacity="0.4"/><path d="M422.46,496.122H622.71L655.2,617.459H451.636Z" transform="translate(-419.21 -496.122)" fill="#ee6969"/></g><path d="M1368.931,1421.265a6.862,6.862,0,0,0-6.435-5.388,4.312,4.312,0,0,0-4.341,5.388,6.862,6.862,0,0,0,6.435,5.388A4.312,4.312,0,0,0,1368.931,1421.265Z" transform="translate(-1221.255 -1284.589)" fill="#d86713"/><path d="M695.575,651.234H508.081l-21.234-84.587-1.627-6.486-1.389-5.533-1.111-4.43-2.145-8.544H665.366l.129.47,2.225,8.074,1.221,4.43,1.527,5.533,1.788,6.486Z" transform="translate(-469.029 -535.155)" fill="#fee9ed"/><path d="M695.575,653.26H508.081l-21.234-84.587-1.627-6.486-1.389-5.533-1.111-4.43-2.145-8.544H665.366l.129.47,2.225,8.074,1.221,4.43,1.527,5.533,1.788,6.486Z" transform="translate(-469.029 -536.892)" fill="#fee9f0"/><path d="M667.72,550.2h-185l-2.145-8.544H665.295l.2.47Z" transform="translate(-469.029 -535.155)" fill="#fbafbe"/><g transform="translate(16.636 8.482)"><path d="M516.285,561.844a1.225,1.225,0,0,1,1.217-1.622,2.215,2.215,0,0,1,2.026,1.622,1.225,1.225,0,0,1-1.217,1.622A2.216,2.216,0,0,1,516.285,561.844Z" transform="translate(-516.235 -559.555)" fill="#e9f3fe"/><ellipse cx="1.432" cy="1.837" rx="1.432" ry="1.837" transform="translate(4.736 2.147) rotate(-48.551)" fill="#e9f3fe"/><path d="M594.687,561.844a1.225,1.225,0,0,1,1.218-1.622,2.215,2.215,0,0,1,2.026,1.622,1.225,1.225,0,0,1-1.217,1.622A2.216,2.216,0,0,1,594.687,561.844Z" transform="translate(-583.445 -559.555)" fill="#e9f3fe"/></g><g transform="translate(45.254 20.498)"><path d="M962.688,890.629H944.149c-.178-1.449-.334-2.98-.475-4.578-.249-2.866-.439-5.948-.58-9.155q-.051-1.11-.091-2.237c-.036-.956-.066-1.924-.094-2.9-.045-1.651-.081-3.322-.107-5,0,0,0,0,0-.006-.032-2.142-.048-4.3-.053-6.447v0q0-.8,0-1.607v0c0-.5,0-1,0-1.506.016-4.625.086-9.161.184-13.38.213-9.333.559-17.109.743-20.848v0c.074-1.535.123-2.388.123-2.388l.005,0c.042.006.323.058.766.165.325.079.737.187,1.205.331h0c.423.128.89.286,1.381.472a.006.006,0,0,1,0,0,16.16,16.16,0,0,1,2.582,1.247l.039.019a7.447,7.447,0,0,1,3.205,3.5c.49,1.278,1.635,8.145,3.019,17.266.039.26.077.522.118.787.732,4.843,1.523,10.278,2.318,15.827.842,5.88,1.683,11.887,2.457,17.452C961.562,882.419,962.175,886.867,962.688,890.629Z" transform="translate(-910.484 -794.759)" fill="#2b478b"/><path d="M900.353,1197.611h-21.58c-.413-1.78-.8-3.5-1.145-5.108a55.739,55.739,0,0,1-1.538-10.032,2.926,2.926,0,0,1,.956-2.184,4.708,4.708,0,0,1,1.546-.913,18.378,18.378,0,0,1,7.174-.63c.931.058,1.874.149,2.8.262a81.775,81.775,0,0,1,9.89,1.892s.318,1.287.695,3.538c.283,1.688.6,3.921.832,6.557.136,1.531.245,3.2.307,4.979C900.313,1196.506,900.332,1197.054,900.353,1197.611Z" transform="translate(-853.341 -1101.74)" fill="#233862"/><path d="M826.439,1189.2l-.215,1.559-1.045,7.57-.178,1.292-.648,4.693H801.865c-.175-3.1-.336-6.124-.367-8.759,0-.292,0-.578,0-.859,0-3.968.349-6.91,1.486-7.653,1.289-.842,5.565-.611,10.119-.053.454.055.911.115,1.368.176,2.654.357,5.31.8,7.446,1.178,1.108.2,2.076.378,2.829.522C825.8,1189.065,826.439,1189.2,826.439,1189.2Z" transform="translate(-789.393 -1108.439)" fill="#c65447"/><path d="M801.494,817.5s12.355-7.989,21.217-3.9c1.412.651,3.023,2.468,4.176,3.739,3.2,3.529,9.462,59.6,9.462,59.6s-17.767,6.017-34.855-2.042Z" transform="translate(-789.394 -787.777)" fill="#fff"/><path d="M955.055,819.159s12.507,5.126,14.2,9.064,7.2,28.125,7.2,30.961-9.587.634-11.13-3.94c-1.282-3.8-5.6-15.467-7.884-22.848Z" transform="translate(-921.036 -793.546)" fill="#2b478b"/><g transform="translate(16.285)"><path d="M878.734,779.412a14.072,14.072,0,0,1-9.678-1.971,27.848,27.848,0,0,0,2.063-7.285c.011-.086.02-.169.028-.25a7.435,7.435,0,0,0,.034-1.669h7.059s1.93.882,1.93,1.492q0,.489.009.936c.014.812.047,1.521.089,2.129a19.364,19.364,0,0,0,.361,2.914S881.491,778.871,878.734,779.412Z" transform="translate(-863.598 -749.893)" fill="#ffb27d"/><path d="M891.756,780.61a9.756,9.756,0,0,1-9.149-2.639c-.1-.107-.15-.171-.15-.171.056-.028.116-.054.178-.079,1.991-.806,6.508-.165,9.031.76C891.681,779.293,891.714,780,891.756,780.61Z" transform="translate(-875.087 -757.708)" fill="#e2915a"/><path d="M863.187,682.313c.956,5.143,7.592,4.974,10.46,4.651.807-.09,1.315-.193,1.315-.193.91-.243,1.418-1.677,1.654-3.554.468-3.716-.123-9.171-.751-10.566-.945-2.1-2.724-4.37-9.408-2.732S861.961,675.723,863.187,682.313Z" transform="translate(-857.413 -665.129)" fill="#ffb27d"/><path d="M849.518,644.375a15.284,15.284,0,0,0-4.609-3.762c-3.779-2.044-8.616.064-8.636.073-5.459,2.4-6.885,6.577-3.99,13.083,3.06,6.88,5.974,6.106,5.974,6.106s-.619-.385-.562-2.529c0-.122.008-.224.014-.311a1.442,1.442,0,0,0-.455-1.173c-.678-.605-1.009-2.435-.441-2.945.685-.615,1.648.132,1.955.706a.839.839,0,0,0,1.2.264c1.7-1.074.6-3.222,2.219-4.537s4.918-.211,7.354-1.258C852.725,646.9,850.206,645.328,849.518,644.375Z" transform="translate(-830.817 -639.722)" fill="#233862"/></g><path d="M806.416,889.543h-26.9c.192-5.578.439-12.239.7-18.982.066-1.748.136-3.5.2-5.246.031-.738.058-1.472.087-2.205.595-14.976,1.184-28.5,1.309-29.227.283-1.648.549-3.052.838-4.27.845-3.548,1.9-5.493,4.186-7.166.223-.17,2.055-1.092,3.669-1.9,1.318-.654,2.491-1.226,2.527-1.242v0h0a2.587,2.587,0,0,1,.871,1.052,17.549,17.549,0,0,1,.971,2.14,115.361,115.361,0,0,1,3.48,11.6.04.04,0,0,1,0,.011.012.012,0,0,1,0,.006v0c.595,2.331,1.021,4.145,1.142,4.667.207.879.478,2.58.8,4.884v.006c.435,3.142.953,7.405,1.5,12.244v0q.085.746.17,1.507.1.87.2,1.759v0c.021.191.042.381.061.572v0c.212,1.916.425,3.892.636,5.9a.009.009,0,0,0,0,.006c.181,1.658,2.695,2.858,2.869,4.546.013.123.026.372.042.717.032.714.071,1.846.118,3.157.019.583.04,1.2.063,1.833.1,2.808.22,5.884.357,7.363.006.07.013.158.018.267.016.3.029.73.04,1.276C806.4,885.994,806.413,887.653,806.416,889.543Z" transform="translate(-770.552 -793.673)" fill="#2b478b"/><path d="M797.387,963.717c-.008.034-.428,15.143,10.937,16.978s3.814,2.321,3.814,2.321-21.383-.909-21.736-1.474S797.387,963.717,797.387,963.717Z" transform="translate(-779.874 -917.469)" fill="#233862"/><path d="M786.177,1109.726s-.213.151-.622.415a.147.147,0,0,0-.021.013,53.368,53.368,0,0,1-14.372,6.147q-1.18.32-2.437.6c.066-1.748.136-3.5.2-5.245a21.953,21.953,0,0,1-2.817-.39c.03-.23.061-.46.09-.69.953-.391,1.9-.768,2.814-1.125.744-.291,1.464-.568,2.146-.825,3.078-1.169,5.359-1.961,5.359-1.961l9.11,2.886Z" transform="translate(-759.062 -1040.013)" fill="#233862"/><path d="M746.253,863.128s-1.171.292-3.034.668a.05.05,0,0,0-.02,0,74.662,74.662,0,0,1-14.374,1.607c-.761-.009-1.509-.038-2.233-.094a21.952,21.952,0,0,1-2.817-.39,8.762,8.762,0,0,1-4.5-2.125c-7.676-7.819,4.189-35.88,6.684-38.61,2.913-3.188,8.228-4.306,11.163-4.69l.354-.045c1.032-.123,1.694-.148,1.731-.15h0s-.23.74-.615,1.995c-.15.486-.323,1.049-.514,1.677-1.8,5.9-5.282,17.508-6.815,24.052a16.589,16.589,0,0,0-.726,4.624c.6,2.235,6.8,3.384,10.73,3.892,1.639.212,2.883.312,3.161.333a.4.4,0,0,1,.058,0l.227.932.544,2.235.535,2.2Z" transform="translate(-716.727 -793.669)" fill="#2b478b"/><path d="M915.24,1016.581l-26.362-1.111,5.348-32.854,26.362,1.111Z" transform="translate(-864.305 -933.671)" fill="#f99746"/><path d="M902.4,1075.252s5.132-.358,5.389.838c.6,2.788-4.412,5.078-6.036,4.921S901.223,1075.065,902.4,1075.252Z" transform="translate(-874.642 -1013.04)" fill="#ffb27d"/><path d="M1066.988,1032.148s-4.91-1.535-5.437-.431c-1.229,2.574,3.118,5.961,4.733,6.184S1068.18,1032.24,1066.988,1032.148Z" transform="translate(-1012.145 -975.421)" fill="#ffb27d"/><path d="M858.5,807.745a9.576,9.576,0,0,0-3.241,2.582s8.07,14.011,8.034,13.88S860.565,809.54,858.5,807.745Z" transform="translate(-835.485 -783.761)" fill="#233862"/><path d="M948.381,809.129a6.156,6.156,0,0,1,2.381,2.437l.959,12.232s-2.048-8.977-3.091-13.034A6.874,6.874,0,0,1,948.381,809.129Z" transform="translate(-915.314 -784.947)" fill="#233862"/><path d="M987.57,980.305a1.2,1.2,0,0,1,1.408-.806c1.2.106,7.942.438,7.942.438s1.3-.021,1.179.812Z" transform="translate(-948.909 -930.992)" fill="#c65447"/><path d="M933.4,763.883a2.814,2.814,0,0,0,2.287.551c.837-.147,1.306-1.235,1.306-1.235A6.322,6.322,0,0,0,933.4,763.883Z" transform="translate(-902.467 -745.539)" fill="#fff"/></g><g transform="translate(103.532 24.891)"><g transform="translate(71.78)"><path d="M1653.657,694.673l-19.473.072-6.315-24.175,19.473-.072Z" transform="translate(-1627.869 -670.498)" fill="#fff"/><g transform="translate(5.357 2.819)"><path d="M1680.856,690.6l-8.165.03-.094-.358,8.165-.03Z" transform="translate(-1671.57 -690.246)" fill="#f9adad"/><path d="M1677.461,697.566l-10.251.038-.094-.358,10.251-.038Z" transform="translate(-1666.871 -696.214)" fill="#f9adad"/><g transform="translate(0 5.914)"><path d="M1678.806,732.034l-13.316.049-.093-.358,13.315-.049Z" transform="translate(-1665.397 -731.676)" fill="#f9adad"/><path d="M1680.963,740.292l-13.315.049-.094-.358,13.315-.049Z" transform="translate(-1667.246 -738.755)" fill="#f9adad"/><path d="M1683.12,748.55l-13.316.049-.093-.358,13.315-.049Z" transform="translate(-1669.095 -745.835)" fill="#f9adad"/><path d="M1685.277,756.808l-13.315.049-.093-.358,13.315-.049Z" transform="translate(-1670.945 -752.914)" fill="#f9adad"/><path d="M1687.434,765.066l-13.315.049-.093-.358,13.315-.049Z" transform="translate(-1672.794 -759.993)" fill="#f9adad"/></g><g transform="translate(1.981 13.497)"><path d="M1692.683,785.161l-13.315.049-.093-.358,13.315-.049Z" transform="translate(-1679.274 -784.803)" fill="#f9adad"/><path d="M1694.84,793.419l-13.315.049-.094-.358,13.316-.049Z" transform="translate(-1681.123 -791.883)" fill="#f9adad"/><path d="M1697,801.677l-13.316.049-.093-.358,13.315-.049Z" transform="translate(-1682.972 -798.962)" fill="#f9adad"/><path d="M1699.154,809.935l-13.315.049-.094-.358,13.316-.049Z" transform="translate(-1684.821 -806.041)" fill="#f9adad"/><path d="M1701.311,818.193l-13.315.049-.093-.358,13.315-.049Z" transform="translate(-1686.671 -813.12)" fill="#f9adad"/></g></g></g><g transform="translate(79.627 30.041)"><path d="M1708.629,905.129l-19.473.072-6.315-24.176,19.473-.072Z" transform="translate(-1682.841 -880.953)" fill="#fff"/><g transform="translate(5.357 2.819)"><path d="M1735.829,901.059l-8.165.03-.093-.358,8.165-.03Z" transform="translate(-1726.542 -900.701)" fill="#f9adad"/><path d="M1732.433,908.021l-10.251.038-.094-.358,10.251-.038Z" transform="translate(-1721.843 -906.669)" fill="#f9adad"/><g transform="translate(0 5.914)"><path d="M1733.778,942.489l-13.315.049-.093-.358,13.315-.049Z" transform="translate(-1720.369 -942.131)" fill="#f9adad"/><path d="M1735.934,950.747l-13.315.049-.094-.358,13.316-.049Z" transform="translate(-1722.218 -949.21)" fill="#f9adad"/><path d="M1738.092,959l-13.315.049-.094-.358,13.315-.049Z" transform="translate(-1724.067 -956.289)" fill="#f9adad"/><path d="M1740.249,967.263l-13.315.049-.093-.358,13.315-.049Z" transform="translate(-1725.916 -963.369)" fill="#f9adad"/><path d="M1742.406,975.521l-13.315.049-.094-.358,13.315-.049Z" transform="translate(-1727.765 -970.448)" fill="#f9adad"/></g><g transform="translate(1.981 13.497)"><path d="M1747.655,995.616l-13.315.049-.093-.358,13.315-.049Z" transform="translate(-1734.246 -995.258)" fill="#f9adad"/><path d="M1749.811,1003.874l-13.315.049-.094-.358,13.316-.049Z" transform="translate(-1736.094 -1002.338)" fill="#f9adad"/><path d="M1751.969,1012.132l-13.315.049-.094-.358,13.315-.049Z" transform="translate(-1737.944 -1009.417)" fill="#f9adad"/><path d="M1754.126,1020.39l-13.315.049-.093-.358,13.315-.049Z" transform="translate(-1739.793 -1016.496)" fill="#f9adad"/><path d="M1756.283,1028.648l-13.315.049-.093-.358,13.315-.049Z" transform="translate(-1741.642 -1023.575)" fill="#f9adad"/></g></g></g><g transform="translate(87.526 60.284)"><path d="M1763.97,1117l-19.473.072-6.315-24.176,19.473-.072Z" transform="translate(-1738.182 -1092.823)" fill="#fff"/><g transform="translate(5.357 2.819)"><path d="M1791.17,1112.929l-8.165.03-.094-.358,8.165-.03Z" transform="translate(-1781.883 -1112.571)" fill="#f9adad"/><path d="M1787.774,1119.891l-10.251.038-.093-.358,10.251-.038Z" transform="translate(-1777.184 -1118.539)" fill="#f9adad"/><g transform="translate(0 5.914)"><path d="M1789.119,1154.36l-13.315.049-.094-.358,13.315-.049Z" transform="translate(-1775.71 -1154.002)" fill="#f9adad"/><path d="M1791.276,1162.617l-13.315.049-.093-.358,13.315-.049Z" transform="translate(-1777.559 -1161.081)" fill="#f9adad"/><path d="M1793.433,1170.875l-13.316.049-.093-.358,13.315-.049Z" transform="translate(-1779.408 -1168.16)" fill="#f9adad"/><path d="M1795.59,1179.133l-13.315.049-.093-.358,13.315-.049Z" transform="translate(-1781.258 -1175.239)" fill="#f9adad"/><path d="M1797.747,1187.391l-13.315.049-.094-.358,13.315-.049Z" transform="translate(-1783.106 -1182.318)" fill="#f9adad"/></g><g transform="translate(1.981 13.497)"><path d="M1803,1207.487l-13.315.049-.094-.358,13.316-.049Z" transform="translate(-1789.587 -1207.129)" fill="#f9adad"/><path d="M1805.153,1215.744l-13.315.049-.094-.358,13.315-.049Z" transform="translate(-1791.436 -1214.208)" fill="#f9adad"/><path d="M1807.31,1224l-13.315.049-.093-.358,13.315-.049Z" transform="translate(-1793.286 -1221.287)" fill="#f9adad"/><path d="M1809.467,1232.26l-13.315.049-.093-.358,13.315-.049Z" transform="translate(-1795.135 -1228.366)" fill="#f9adad"/><path d="M1811.624,1240.518l-13.315.049-.094-.358,13.316-.049Z" transform="translate(-1796.983 -1235.445)" fill="#f9adad"/></g></g></g><g transform="translate(0 0.108)"><path d="M1212.712,755.807l-68.108.251L1125,681.016l8.873-9.554,56.75-.21Z" transform="translate(-1125.002 -671.252)" fill="#fff"/><path d="M1307.5,753.782l-24,.089-.275-1.052,24-.089Z" transform="translate(-1260.635 -741.1)" fill="#f9adad"/><path d="M1297.516,774.249l-30.136.111-.275-1.052,30.136-.111Z" transform="translate(-1246.821 -758.646)" fill="#f9adad"/><g transform="translate(19.562 29.015)"><path d="M1301.468,875.576l-39.144.144-.275-1.052,39.144-.144Z" transform="translate(-1262.05 -874.524)" fill="#f9adad"/><path d="M1307.81,899.851l-39.144.145-.275-1.052,39.144-.145Z" transform="translate(-1267.486 -895.335)" fill="#f9adad"/><path d="M1314.15,924.128l-39.144.145-.275-1.052,39.144-.144Z" transform="translate(-1272.922 -916.146)" fill="#f9adad"/><path d="M1320.492,948.4l-39.144.145-.275-1.052,39.144-.145Z" transform="translate(-1278.358 -936.956)" fill="#f9adad"/><path d="M1326.833,972.68l-39.144.145-.275-1.052,39.144-.145Z" transform="translate(-1283.794 -957.767)" fill="#f9adad"/></g><g transform="translate(25.386 51.309)"><path d="M1342.263,1031.755l-39.144.145-.275-1.052,39.144-.145Z" transform="translate(-1302.845 -1030.703)" fill="#f9adad"/><path d="M1348.6,1056.031l-39.144.145-.275-1.052,39.144-.144Z" transform="translate(-1308.28 -1051.514)" fill="#f9adad"/><path d="M1354.945,1080.307l-39.144.144-.275-1.052,39.144-.145Z" transform="translate(-1313.717 -1072.325)" fill="#f9adad"/><path d="M1361.286,1104.583l-39.144.145-.275-1.052,39.144-.145Z" transform="translate(-1319.152 -1093.136)" fill="#f9adad"/><path d="M1367.627,1128.859l-39.144.145-.275-1.052,39.144-.144Z" transform="translate(-1324.589 -1113.947)" fill="#f9adad"/></g><path d="M1125,682.274l11.357-.042-2.484-9.512Z" transform="translate(-1125.002 -672.511)" fill="#f9adb7"/></g></g></g><g transform="translate(414.242 421.533)"><g transform="translate(0 22.338)"><path d="M0,0H53.772a9.682,9.682,0,0,1,9.682,9.682v0a9.9,9.9,0,0,1-9.9,9.9H0a0,0,0,0,1,0,0V0A0,0,0,0,1,0,0Z" transform="translate(2.944 0)" fill="#fcecdb"/><path d="M1978.9,1546.794v2.946a8.577,8.577,0,0,1-8.58,8.579h-103.9a1.244,1.244,0,0,1-1.245-1.243v-.441a1.244,1.244,0,0,1,1.245-1.243h63.336a8,8,0,0,0,1.817-5.08v-3.745a7.8,7.8,0,0,0-1.725-4.9H1866.42a1.244,1.244,0,0,1-1.245-1.245v-.44a1.244,1.244,0,0,1,1.245-1.245h104.422a8.052,8.052,0,0,1,8.057,8.057Z" transform="translate(-1865.175 -1538.737)" fill="#699dee"/><path d="M1978.588,1544.574h-47.272a7.815,7.815,0,0,0-1.468-2.908H1866.42a1.244,1.244,0,0,1-1.245-1.245v-.44a1.244,1.244,0,0,1,1.245-1.245h104.422A8.059,8.059,0,0,1,1978.588,1544.574Z" transform="translate(-1865.175 -1538.737)" fill="#548ee2"/><path d="M1885.8,1607.334l7.693.329-7.693.2Z" transform="translate(-1882.855 -1597.542)" fill="#f4d2b8"/><path d="M1885.8,1628.859l18.3.329-18.3.2Z" transform="translate(-1882.855 -1615.995)" fill="#f4d2b8"/></g><g transform="translate(8.311 41.88)"><g transform="translate(0 0)"><path d="M0,0H59.024A7.855,7.855,0,0,1,66.88,7.855v0A7.377,7.377,0,0,1,59.5,15.232H0a0,0,0,0,1,0,0V0A0,0,0,0,1,0,0Z" transform="translate(66.88 15.232) rotate(-180)" fill="#2b478b"/><path d="M0,0H67.144a7.7,7.7,0,0,1,7.7,7.7v0a7.531,7.531,0,0,1-7.531,7.531H0a0,0,0,0,1,0,0V0A0,0,0,0,1,0,0Z" transform="translate(130.666 15.232) rotate(180)" fill="#fcecdb"/><path d="M2276.2,1768.669h81.663a1.139,1.139,0,0,0,1.139-1.139h0a1.139,1.139,0,0,0-1.139-1.139H2276.2a1.139,1.139,0,0,0-1.139,1.139h0A1.139,1.139,0,0,0,2276.2,1768.669Z" transform="translate(-2224.868 -1753.437)" fill="#2b478b"/><path d="M2276.2,1677.919h81.663a1.139,1.139,0,0,0,1.139-1.139h0a1.139,1.139,0,0,0-1.139-1.139H2276.2a1.139,1.139,0,0,0-1.139,1.139h0A1.139,1.139,0,0,0,2276.2,1677.919Z" transform="translate(-2224.868 -1675.641)" fill="#2b478b"/><path d="M2784.31,1729l-9.074.256,9.074.154Z" transform="translate(-2653.644 -1721.379)" fill="#f4d2b8"/><path d="M2709.157,1704.437l-21.588.256,21.588.154Z" transform="translate(-2578.49 -1700.327)" fill="#f4d2b8"/></g><g transform="translate(109.301 4.316)"><path d="M2689.125,1705.874a3.552,3.552,0,0,1,1.231,1.73,2.47,2.47,0,0,1,.1.6c.051,1.429,0,4.664,0,4.664l2.731-1.617,2.724,1.617v-4.384a3.478,3.478,0,0,0-.668-2.163,1.034,1.034,0,0,0-.754-.448Z" transform="translate(-2689.125 -1705.874)" fill="#699dee"/><path d="M2689.125,1705.874a3.552,3.552,0,0,1,1.231,1.73l5.474.064s-.215-1.54-1.344-1.794Z" transform="translate(-2689.125 -1705.874)" fill="#568cdb"/></g></g><g transform="translate(5.796 0)"><path d="M0,0H57.933A11.315,11.315,0,0,1,69.248,11.315v0A11.064,11.064,0,0,1,58.184,22.379H0a0,0,0,0,1,0,0V0A0,0,0,0,1,0,0Z" transform="translate(119.443 22.379) rotate(180)" fill="#fcecdb"/><path d="M1957.394,1390.93v4.816a5.567,5.567,0,0,0,2.827,4.8,5.627,5.627,0,0,0,2.787.736h65.49a1.39,1.39,0,0,1,1.39,1.39v.568a1.39,1.39,0,0,1-1.39,1.39H1915.363a9.582,9.582,0,0,1-9.582-9.582v-3.8a8.992,8.992,0,0,1,9-9H2028.5a1.389,1.389,0,0,1,1.39,1.389v.568a1.39,1.39,0,0,1-1.39,1.39h-65.691a5.425,5.425,0,0,0-3.984,1.738A5.326,5.326,0,0,0,1957.394,1390.93Z" transform="translate(-1905.781 -1382.247)" fill="#b5453c"/><path d="M2692.136,1460.637l-8.4.376,8.4.227Z" transform="translate(-2572.693 -1449.447)" fill="#f4d2b8"/><path d="M2622.6,1424.556l-19.973.376,19.973.227Z" transform="translate(-2503.159 -1418.516)" fill="#f4d2b8"/><g transform="translate(99.675 6.341)"><path d="M2604.069,1426.668a4.194,4.194,0,0,1,1.755,1.876,2.1,2.1,0,0,1,.136.653c.073,1.55,0,5.057,0,5.057l3.892-1.754,3.882,1.754V1429.5a3.2,3.2,0,0,0-.952-2.346,1.609,1.609,0,0,0-1.075-.486Z" transform="translate(-2604.069 -1426.668)" fill="#f99746"/><path d="M2604.069,1426.668a4.194,4.194,0,0,1,1.755,1.876l7.8.07a2.489,2.489,0,0,0-1.916-1.946Z" transform="translate(-2604.069 -1426.668)" fill="#ed7d2b"/></g></g></g><g transform="translate(427.133 328.486)"><g transform="translate(0 0)"><path d="M2326.391,1318.2a22.41,22.41,0,0,0,7.793,8.327h18.062S2323.757,1313.621,2326.391,1318.2Z" transform="translate(-2273.3 -1233.455)" fill="#233862"/><path d="M2334.157,1559.784a1.67,1.67,0,0,1,.3,1.786.014.014,0,0,1,0,.009c-.431,1.191-1.854,2.52-3.507,3.848-.211.17-.4.326-.563.469-.043.038-.086.076-.126.113s-.065.06-.1.088c-1.542,1.421-.961,1.747-3.731,4.63-3.158,3.286-5.332,3.345-5.951,3.046-.523-.255.54-2,1.718-3.957.057-.094.113-.19.172-.286.157-.26.313-.525.469-.786,1.38-2.357,1.026-3.464.7-6.972-.266-2.851-4.435-15.927-4.435-15.927l6.052-1.042s1.823,10.412,3.831,12.016c1.074.855,2.276.866,3.308,1.5q.109.066.215.136A7.946,7.946,0,0,1,2334.157,1559.784Z" transform="translate(-2267.194 -1428.552)" fill="#ffb27d"/><path d="M2341.612,1640.95a1.67,1.67,0,0,1,.3,1.786.014.014,0,0,1,0,.009,12.855,12.855,0,0,1-3.513,3.835c-.209.173-.393.333-.557.481-.043.038-.086.076-.126.113s-.065.06-.1.088c-1.542,1.421-.961,1.747-3.731,4.63-3.158,3.286-5.332,3.345-5.951,3.046-.523-.255.54-2,1.718-3.957a13.455,13.455,0,0,0,5.629-4.148c1.9-2.427,3.169-5.544,4.464-7.35q.109.066.215.136A7.945,7.945,0,0,1,2341.612,1640.95Z" transform="translate(-2274.649 -1509.718)" fill="#233862"/><path d="M1973.652,1544.943c-.374,1.868-3.036,1.557-6.011.83s-2.268.137-6.5-.332-5.517-2.047-5.646-2.677c-.116-.558,1.976-.756,4.22-1.014.282-.031.566-.066.849-.1,2.533-.318,4.389-1.953,6.69-3.3,2.18-1.272,5.433-6.453,5.433-6.453l5.807.46s-3.047,4.628-4.226,6.64a7.016,7.016,0,0,0-.57,3.957A7.448,7.448,0,0,1,1973.652,1544.943Z" transform="translate(-1955.488 -1417.491)" fill="#ffb27d"/><path d="M1967.64,1604.93c-2.975-.727-2.268.137-6.5-.331s-5.517-2.048-5.646-2.677c-.116-.559,1.976-.756,4.22-1.014l.021.043a11.934,11.934,0,0,0,6.064,1.885c2.872.07,5.915-.753,7.9-.721a7.449,7.449,0,0,1-.045,1.986C1973.278,1605.969,1970.615,1605.657,1967.64,1604.93Z" transform="translate(-1955.488 -1476.649)" fill="#233862"/><path d="M2238.63,1307.265l5.428,14.607,7.087,19.072a11.482,11.482,0,0,0,3.765-.344,16.325,16.325,0,0,0,3.641-1.772s-1.968-20.478-5.639-32.233a20.927,20.927,0,0,0-3.158-6.832C2244.063,1293.037,2238.63,1307.265,2238.63,1307.265Z" transform="translate(-2198.214 -1216.942)" fill="#233862"/><path d="M2084.521,1183.138c3.556-1.147,13.7.326,23.888,2.32l2.133-3.518,22.007-1.719s7.262,16.1,3.286,26.366a3.721,3.721,0,0,1-3.725,2.507h-.321s-13.1-.008-17.352-.008c-10.944,0-23.162-7.523-24.743-7.839-2.587-.517-3.622,4.656-6.209,10.089s-24.318,24.059-24.318,24.059a19.136,19.136,0,0,1-4.72-.484,4.646,4.646,0,0,1-2.026-1.279S2076.5,1185.725,2084.521,1183.138Z" transform="translate(-2038.586 -1116.011)" fill="#2b478b"/><path d="M2419.024,766.013c7.837,4.315,23.735,13.26,23.817,13.2,0,0,5.843,2.2,9.158,0,5.525-3.669,8.488-13.545-1.616-22.044-5.039-4.238-8.62-5.27-9.164-12.038-.3-3.672-5.314-15.79-13.654-14.669-.7.094-4.987.294-7.806,1.774C2412.577,736.012,2407.276,764.343,2419.024,766.013Z" transform="translate(-2346.939 -730.392)" fill="#233862"/><path d="M2500.508,880.206c-.034.022,3.856,1.35,6.457.2,2.448-1.082,4.3-5.108,4.265-5.11-1.113-.051-2.335-1.025-3.277-7.411l-.474.17-7.97,2.868s.578,2.558.951,4.992C2500.774,877.959,2500.943,879.917,2500.508,880.206Z" transform="translate(-2421.854 -848.258)" fill="#ffb27d"/><path d="M2499.509,871.944s.578,2.557.951,4.992c4.578-.824,6.375-5.385,7.019-7.86Z" transform="translate(-2421.854 -849.28)" fill="#ed975d"/><path d="M2457.57,791.752s10.9-1.464,9.889-8.241-.293-11.53-7.3-10.882-7.968,3.436-8.178,5.781S2454.708,791.958,2457.57,791.752Z" transform="translate(-2381.103 -766.55)" fill="#ffb27d"/><path d="M2454.831,771.1s6.98,6.016,11.729,6.5,6.546-1.039,6.546-1.039a18.543,18.543,0,0,1-4.483-6.074,3.338,3.338,0,0,0-2.752-1.968C2462.48,768.225,2456.052,768.091,2454.831,771.1Z" transform="translate(-2383.554 -762.952)" fill="#233862"/><path d="M2451.54,775.85a17.192,17.192,0,0,0-3.071,3.933,13.2,13.2,0,0,0-.357,7.017s-3.639-7.075-1.579-10.512C2448.718,772.642,2451.54,775.85,2451.54,775.85Z" transform="translate(-2375.899 -768.243)" fill="#233862"/><path d="M2442.167,939.235c.33,22.074.09,17.461,2.5,19.556.582.5,2.217.8,4.37.947,6.769.449,18.667-.666,19.12-1.917,1.561-4.328.459-5.673,1.762-12.3.136-.7.3-1.468.5-2.3,1.086-4.551,2.143-6.1-1.71-13.411-3.494-6.623-7.124-12-7.451-11.8-9.219,5.472-9.962.873-9.962.873S2442.006,928.467,2442.167,939.235Z" transform="translate(-2372.696 -891.223)" fill="#fff"/><path d="M2276.658,1373.744l7.087,19.072a11.478,11.478,0,0,0,3.765-.344,16.32,16.32,0,0,0,3.641-1.772s-1.968-20.478-5.639-32.232Z" transform="translate(-2230.813 -1268.814)" fill="#2b478b"/><path d="M2396.457,924.142s-9.486,1.608-10.6,5.692-7.669,28.094-7.669,28.094,4.822.866,7.05-1.361,7.751-20.668,7.751-20.668Z" transform="translate(-2317.851 -896.486)" fill="#fff"/><path d="M2490.346,1069.8c6.769.449,18.667-.666,19.119-1.917,1.561-4.328.459-5.673,1.762-12.3l-3.265-9.193s.54,10.237-2.479,12.929-12.361,5.2-13.828,7.448A8.229,8.229,0,0,0,2490.346,1069.8Z" transform="translate(-2413.999 -1001.284)" fill="#ebf3ff"/><path d="M2473.669,1174.012s-6.677-1.487-7.755-.894-3.711,2.751-4.041,3.5,2.4-.57,3.286-.808a7.9,7.9,0,0,1,2.836.621,9.429,9.429,0,0,0,5.083.51Z" transform="translate(-2389.568 -1109.803)" fill="#ffb27d"/><path d="M2542.669,918s8.966.552,12.07,4.882c4.369,6.094,13.037,32.066,8.069,35.53-5.594,3.9-25.461,1.021-25.461,1.021s-.661-3.09.259-4.585,15.868-3.909,16.558-4.6-8.624-13.453-8.624-15.523S2542.669,918,2542.669,918Z" transform="translate(-2454.095 -891.223)" fill="#fff"/><path d="M2472.388,1186.977a12.91,12.91,0,0,1-1.858,2.02,1.369,1.369,0,0,1-.755.162l.943-1.7Z" transform="translate(-2396.365 -1121.803)" fill="#ffb27d"/><path d="M2465.915,1173.956l-4.068,1.975a.725.725,0,0,0,.674.26,9.7,9.7,0,0,0,1.764-.485Z" transform="translate(-2389.568 -1110.641)" fill="#ffb27d"/><g transform="translate(32.307 45.887)"><path d="M2223.676,1075.935H2191.5l-9.68-24.071h32.129Z" transform="translate(-2181.817 -1051.863)" fill="#f99746"/><path d="M2246.989,1213.929h42.492v.938h-42.115Z" transform="translate(-2237.687 -1190.795)" fill="#ed7d2b"/><path d="M2306.166,1126.979a1.115,1.115,0,0,1,1.093-1.532,2.2,2.2,0,0,1,1.972,1.532,1.115,1.115,0,0,1-1.093,1.532A2.2,2.2,0,0,1,2306.166,1126.979Z" transform="translate(-2288.363 -1114.943)" fill="#fff"/></g></g></g><g transform="translate(201.675 398.866)" opacity="0"><g transform="translate(0 0.366)"><path d="M383.213,1234.683l-.685.475a1.616,1.616,0,0,1-2.246-.407L376.3,1229a1.616,1.616,0,0,1,.407-2.246l.981-.681a.316.316,0,0,1,.36.519l-.982.68a.984.984,0,0,0-.248,1.367l3.985,5.75a.983.983,0,0,0,1.367.248l.685-.475a.984.984,0,0,0,.248-1.367l-2.646-3.817a.316.316,0,0,1,.519-.36l2.646,3.817A1.616,1.616,0,0,1,383.213,1234.683Z" transform="translate(-376.008 -1226.018)" fill="#fbafaf"/></g><g transform="translate(0.692 0)"><path d="M391.736,1238.154l-1.229.852a2.614,2.614,0,0,1-3.6-.783l-5.992-8.645a.316.316,0,0,1,.519-.36l5.992,8.645a1.983,1.983,0,0,0,2.726.623l1.229-.852a1.983,1.983,0,0,0,.373-2.771l-6.825-9.847a1.983,1.983,0,0,0-2.726-.623.316.316,0,1,1-.36-.519,2.615,2.615,0,0,1,3.6.783l6.825,9.847A2.614,2.614,0,0,1,391.736,1238.154Z" transform="translate(-380.854 -1223.452)" fill="#fbafaf"/></g></g><g transform="translate(206.469 453.699)" opacity="0"><g transform="translate(0.022 2.934)"><path d="M424.745,1630.233l.148,1.218a2.378,2.378,0,0,1-2.072,2.644l-10.218,1.24a2.378,2.378,0,0,1-2.644-2.072l-.212-1.744a.465.465,0,1,1,.923-.112l.212,1.744a1.447,1.447,0,0,0,1.609,1.261l10.218-1.24a1.447,1.447,0,0,0,1.261-1.609l-.148-1.218a1.447,1.447,0,0,0-1.609-1.261l-6.783.823a.465.465,0,0,1-.112-.923l6.783-.823A2.378,2.378,0,0,1,424.745,1630.233Z" transform="translate(-409.744 -1628.144)" fill="#fbafaf"/></g><g transform="translate(0 0)"><path d="M434.991,1610.82l.265,2.183a3.846,3.846,0,0,1-3.492,4.154l-15.362,1.865a.465.465,0,1,1-.112-.923l15.362-1.864a2.918,2.918,0,0,0,2.682-3.119l-.265-2.183a2.918,2.918,0,0,0-3.35-2.387l-17.5,2.124a2.918,2.918,0,0,0-2.682,3.119.465.465,0,1,1-.923.112,3.846,3.846,0,0,1,3.492-4.154l17.5-2.123A3.846,3.846,0,0,1,434.991,1610.82Z" transform="translate(-409.59 -1607.591)" fill="#fbafbb"/></g></g><circle cx="1.416" cy="1.416" r="1.416" transform="translate(395.321 315.18) rotate(-76.717)" fill="#f99746"/><rect width="413.982" height="1.098" rx="0.549" transform="translate(174.83 478.537)" fill="#2e3552" opacity="0.2"/></g></svg>