<svg xmlns="http://www.w3.org/2000/svg" xmlns:xlink="http://www.w3.org/1999/xlink" width="17.121" height="16.728" viewBox="0 0 17.121 16.728"><defs><clipPath id="a"><path d="M4550.476,408.493a2.256,2.256,0,0,1,2.137,2.175.625.625,0,0,0-.039.353q0,5.835,0,11.669a.65.65,0,0,0,.037.354,2.308,2.308,0,0,1-2.386,2.173c-2.167.008-4.334,0-6.5,0-1.962,0-3.923.008-5.884,0a2.305,2.305,0,0,1-2.346-2.172.709.709,0,0,0,.034-.355q0-5.832,0-11.665a.676.676,0,0,0-.036-.354,2.26,2.26,0,0,1,2.135-2.175,2.823,2.823,0,0,0,.727,0q5.7.009,11.4,0A2.764,2.764,0,0,0,4550.476,408.493Z" transform="translate(0 0)" fill="#375997"/></clipPath></defs><g transform="translate(-4535.492 -408.493)" clip-path="url(#a)"><g transform="translate(4535.855 408.493)"><path d="M20.542,11.943a7.168,7.168,0,0,0-.177-1.71H12.513v3.1h4.61a4.087,4.087,0,0,1-1.71,2.714l-.016.1,2.483,1.924.172.017a8.178,8.178,0,0,0,2.491-6.152" transform="translate(-4.149 -3.393)" fill="#4285f4"/><path d="M8.807,21.7a7.972,7.972,0,0,0,5.539-2.026l-2.639-2.045a4.95,4.95,0,0,1-2.9.836,5.035,5.035,0,0,1-4.758-3.476L3.95,15l-2.582,2-.034.094A8.358,8.358,0,0,0,8.807,21.7" transform="translate(-0.443 -4.969)" fill="#34a853"/><path d="M3.606,12.285a5.149,5.149,0,0,1-.279-1.654A5.411,5.411,0,0,1,3.6,8.976l0-.111L.978,6.835l-.086.041a8.346,8.346,0,0,0,0,7.509l2.714-2.1" transform="translate(0 -2.266)" fill="#fbbc05"/><path d="M8.807,3.234a4.636,4.636,0,0,1,3.234,1.245l2.361-2.3A8.036,8.036,0,0,0,8.807,0,8.358,8.358,0,0,0,1.335,4.61l2.7,2.1A5.056,5.056,0,0,1,8.807,3.234" transform="translate(-0.443)" fill="#eb4335"/></g></g></svg>